# xmcd CD database file generated by Grip 2.94
# 
# Track frame offsets:
#       150
#       1932
#       16220
#       41990
#       61202
#       78570
#       91342
#       109790
#       126797
#       146675
#       165472
#       179315
#       199475
# 
# Disc length: 2739 seconds
# 
# Revision: 3
# Processed by: cddbd v1.4b41PL1 Copyright (c) Steve Scherf et al.
# Submitted via: Grip 2.94
# 
DISCID=ab0ab10d
DTITLE=Hogwaller Ramblers - Hogwaller Ramblers
DYEAR=1900
DGENRE=
TTITLE0=Spank The Dog - Introduction
TTITLE1=Mama Don't You Cry
TTITLE2=She Held That Bottle
TTITLE3=Shorty
TTITLE4=Wish I Knew
TTITLE5=Fall On My Knees
TTITLE6=ADD
TTITLE7=Two White Boys
TTITLE8=You're A Mess
TTITLE9=You Shook Me All Night Long
TTITLE10=Sweet Heaven
TTITLE11=Drowning In The Danube
TTITLE12=Bonus Track - Sydney Tapscott
EXTD=
EXTT0=
EXTT1=
EXTT2=
EXTT3=
EXTT4=
EXTT5=
EXTT6=
EXTT7=
EXTT8=
EXTT9=
EXTT10=
EXTT11=
EXTT12=
PLAYORDER=
